<svg width="468" height="108" viewBox="0 0 468 108" fill="none" xmlns="http://www.w3.org/2000/svg">
<g clip-path="url(#clip0)">
<g clip-path="url(#clip1)">
<path d="M107.984 13.4008C103.629 13.4008 99.2727 16.7766 96.4364 20.4593C93.4987 16.6743 89.2442 13.4008 84.8883 13.4008C79.4182 13.4008 75.1636 18.3111 75.0623 24.6535C74.961 30.8935 79.3169 35.9061 84.8883 35.9061C89.5481 35.9061 93.8026 32.6326 96.4364 28.8476C98.9688 32.5303 103.223 35.9061 107.984 35.9061C113.556 35.9061 117.912 30.9958 117.81 24.6535C117.709 18.4134 113.353 13.4008 107.984 13.4008ZM84.8883 30.9958C82.2546 30.9958 79.9247 28.1315 79.9247 24.7558C79.9247 21.2777 82.3559 18.4134 84.8883 18.4134C88.2312 18.4134 91.1688 21.4823 93.4987 24.6535C91.4727 27.8246 88.2312 30.9958 84.8883 30.9958ZM107.984 30.9958C104.642 30.9958 101.603 28.1315 99.374 24.7558C101.501 21.7892 104.642 18.5157 107.984 18.5157C110.618 18.5157 112.948 21.38 112.948 24.858C112.948 28.1315 110.618 30.9958 107.984 30.9958Z" fill="url(#paint0_linear)"/>
<path d="M153.366 22.7098C154.987 21.4823 156.203 20.1524 156.912 18.7202C157.621 17.2881 158.026 15.6514 158.026 13.9123C158.026 11.2526 157.216 8.89979 155.595 6.85386C153.974 4.91023 151.847 3.47808 149.112 2.76201C147.187 2.25052 144.148 1.94363 139.995 1.94363H132.803V47.977H145.566C149.213 47.977 152.151 47.4655 154.278 46.4426C156.405 45.4196 158.026 43.7829 159.444 41.6347C160.761 39.4864 161.47 37.1336 161.47 34.5762C161.47 31.9165 160.862 29.5637 159.545 27.62C158.127 25.6764 156.101 24.0397 153.366 22.7098ZM141.514 10.4342H143.743C145.769 10.4342 147.187 10.8434 148.2 11.6618C149.213 12.4802 149.618 13.6054 149.618 15.1399C149.618 16.6743 149.112 17.9019 148.099 18.8225C147.086 19.7432 145.465 20.1524 143.338 20.1524H141.413V10.4342H141.514ZM150.935 38.3612C149.719 39.2818 147.288 39.691 143.642 39.691H141.514V27.9269H143.338C146.782 27.9269 149.213 28.5407 150.631 29.666C152.049 30.7912 152.86 32.428 152.86 34.3716C152.86 36.1106 152.252 37.4405 150.935 38.3612Z" fill="url(#paint1_linear)"/>
<path d="M176.26 0.920654H167.751V48.1816H176.26V0.920654Z" fill="url(#paint2_linear)"/>
<path d="M208.777 15.549C205.94 13.9123 203.003 13.0939 199.761 13.0939C195.405 13.0939 191.455 14.6284 188.112 17.6973C184.262 21.2776 182.338 25.6764 182.338 30.9958C182.338 36.0083 184.06 40.2025 187.504 43.6806C190.948 47.1586 195.101 48.8977 199.862 48.8977C203.104 48.8977 206.143 48.0793 208.878 46.5449C211.613 45.0104 213.74 42.7599 215.361 39.9979C216.982 37.2359 217.691 34.167 217.691 30.9958C217.691 27.8246 216.881 24.858 215.361 22.096C213.74 19.334 211.613 17.1858 208.777 15.549ZM206.548 38.2589C204.826 40.1002 202.597 41.0209 199.964 41.0209C197.33 41.0209 195.101 40.1002 193.379 38.2589C191.657 36.4175 190.745 34.0647 190.745 31.0981C190.745 28.2338 191.657 25.881 193.379 24.0397C195.101 22.1983 197.33 21.2776 199.964 21.2776C202.699 21.2776 204.826 22.1983 206.548 24.0397C208.27 25.881 209.182 28.2338 209.182 31.2004C209.182 34.167 208.27 36.4175 206.548 38.2589Z" fill="url(#paint3_linear)"/>
<path d="M242.104 21.0731C243.826 21.0731 245.345 21.3799 246.662 21.8914C247.979 22.4029 249.296 23.4259 250.613 24.7557L257.704 20.8685C255.982 18.4133 253.855 16.4697 251.119 15.1399C248.486 13.81 245.447 13.0939 242.104 13.0939C238.457 13.0939 235.216 13.9123 232.278 15.4468C229.34 17.0835 227.112 19.2317 225.39 21.9937C223.668 24.7557 222.958 27.8246 222.958 31.0981C222.958 35.906 224.681 39.9979 228.023 43.5783C231.366 47.1586 236.026 48.8977 242.003 48.8977C248.587 48.8977 253.753 46.5449 257.299 41.7369L250.613 37.1336C248.486 39.7933 245.548 41.0209 241.8 41.0209C238.761 41.0209 236.229 40.1002 234.405 38.2589C232.48 36.4175 231.569 34.0647 231.569 31.2004C231.569 28.2338 232.582 25.7787 234.506 23.8351C236.431 22.096 238.964 21.0731 242.104 21.0731Z" fill="url(#paint4_linear)"/>
<path d="M296.906 14.0146H286.27L273.81 28.1315V0.920654H265.301V48.0793H273.81V32.428L288.093 48.0793H298.629L282.421 30.382L296.906 14.0146Z" fill="url(#paint5_linear)"/>
<path d="M319.597 21.0731C321.319 21.0731 322.839 21.3799 324.156 21.8914C325.473 22.4029 326.79 23.4259 328.106 24.7557L335.197 20.8685C333.475 18.4133 331.348 16.4697 328.613 15.1399C325.979 13.81 322.94 13.0939 319.597 13.0939C315.951 13.0939 312.709 13.9123 309.771 15.4468C306.834 16.9812 304.605 19.2317 302.883 21.9937C301.161 24.7557 300.452 27.8246 300.452 31.0981C300.452 35.906 302.174 39.9979 305.517 43.5783C308.86 47.1586 313.519 48.8977 319.496 48.8977C326.081 48.8977 331.247 46.5449 334.792 41.7369L328.106 37.1336C325.979 39.7933 323.042 41.0209 319.294 41.0209C316.255 41.0209 313.722 40.1002 311.899 38.2589C309.974 36.4175 309.062 34.0647 309.062 31.2004C309.062 28.2338 310.075 25.7787 312 23.8351C313.925 22.096 316.457 21.0731 319.597 21.0731Z" fill="url(#paint6_linear)"/>
<path d="M361.332 13.1962C359.61 13.1962 357.888 13.6054 356.268 14.3215C354.545 15.0376 352.925 16.1628 351.304 17.595V0.920654H342.896V48.0793H351.304V34.3716C351.304 30.6889 351.405 28.3361 351.709 27.3131C352.216 25.3695 353.026 23.7328 354.242 22.6075C355.457 21.4822 356.977 20.8685 358.699 20.8685C360.016 20.8685 361.13 21.1754 362.042 21.8914C362.953 22.6075 363.561 23.6305 363.966 25.0626C364.371 26.4948 364.574 29.1545 364.574 33.0417V48.0793H372.881V25.5741C372.881 21.6868 371.868 18.7202 369.943 16.6743C367.512 14.3215 364.675 13.1962 361.332 13.1962Z" fill="url(#paint7_linear)"/>
<path d="M405.803 17.7996C404.283 16.2651 402.662 15.1399 400.839 14.3215C399.016 13.5031 397.192 13.1962 395.166 13.1962C390.81 13.1962 387.062 14.833 383.922 18.2088C380.883 21.5845 379.262 25.881 379.262 31.0981C379.262 36.2129 380.883 40.4071 384.023 43.7829C387.164 47.1586 391.013 48.8977 395.369 48.8977C397.293 48.8977 399.117 48.5908 400.738 47.8747C402.358 47.1586 404.081 46.0334 405.701 44.3966V48.0793H414.21V14.0146H405.701V17.7996H405.803ZM403.574 38.3612C401.852 40.2025 399.623 41.1232 396.99 41.1232C394.457 41.1232 392.229 40.2025 390.506 38.2589C388.784 36.3152 387.873 33.9624 387.873 30.9958C387.873 28.0292 388.784 25.6764 390.506 23.8351C392.229 21.9937 394.457 21.0731 396.99 21.0731C399.623 21.0731 401.852 21.9937 403.675 23.8351C405.397 25.6764 406.309 28.0292 406.309 30.9958C406.208 34.0647 405.296 36.5198 403.574 38.3612Z" fill="url(#paint8_linear)"/>
<path d="M426.164 0C424.644 0 423.429 0.511482 422.314 1.63674C421.301 2.65971 420.694 3.98956 420.694 5.52401C420.694 7.05845 421.2 8.38831 422.314 9.51357C423.327 10.6388 424.644 11.1503 426.164 11.1503C427.582 11.1503 428.899 10.6388 429.912 9.51357C430.925 8.38831 431.532 7.16075 431.532 5.6263C431.532 4.09186 431.026 2.762 429.912 1.63674C428.899 0.511482 427.582 0 426.164 0Z" fill="url(#paint9_linear)"/>
<path d="M430.418 14.0146H421.909V48.0793H430.418V14.0146Z" fill="url(#paint10_linear)"/>
<path d="M465.062 16.6743C462.732 14.3215 459.896 13.0939 456.553 13.0939C454.932 13.0939 453.312 13.4008 451.792 14.0146C450.273 14.6284 448.449 15.7536 446.525 17.3904V13.9123H438.016V48.0793H446.525V34.4739C446.525 30.8935 446.626 28.643 446.93 27.5177C447.436 25.4718 448.247 23.8351 449.462 22.7098C450.678 21.5845 452.197 20.9708 453.92 20.9708C455.236 20.9708 456.351 21.2776 457.262 21.9937C458.174 22.7098 458.782 23.7328 459.187 25.0626C459.592 26.3925 459.694 29.0522 459.694 33.144V48.0793H468.101V25.5741C468 21.6868 466.987 18.7202 465.062 16.6743Z" fill="url(#paint11_linear)"/>
<path d="M17.626 2.04593L0 48.0793H9.01558L12.7636 38.5658H31.4026L34.948 48.0793H43.9636L26.439 2.04593H17.626ZM15.9039 30.0752L21.9818 14.2192L28.0597 30.0752H15.9039Z" fill="url(#paint12_linear)"/>
<path d="M58.652 2.04593H50.0416V48.0793H58.652V2.04593Z" fill="url(#paint13_linear)"/>
</g>
<path d="M0.308594 67.2695H3.43359L12.9453 89.4766L22.6328 67.2695H25.7578L13.2578 96H12.6328L0.308594 67.2695ZM46.0898 66C46.7148 66 47.2487 66.2214 47.6914 66.6641C48.1341 67.1068 48.3555 67.6406 48.3555 68.2656C48.3555 68.8776 48.1341 69.4049 47.6914 69.8477C47.2487 70.2904 46.7148 70.5117 46.0898 70.5117C45.4779 70.5117 44.9505 70.2904 44.5078 69.8477C44.0651 69.4049 43.8438 68.8776 43.8438 68.2656C43.8438 67.6406 44.0651 67.1068 44.5078 66.6641C44.9505 66.2214 45.4779 66 46.0898 66ZM44.7227 74.75H47.4766V96H44.7227V74.75ZM67.1055 74.75H69.8984V77.8555C70.7318 76.6315 71.6107 75.7201 72.5352 75.1211C73.4596 74.5091 74.4232 74.2031 75.4258 74.2031C76.181 74.2031 76.9883 74.444 77.8477 74.9258L76.4219 77.2305C75.849 76.9831 75.3672 76.8594 74.9766 76.8594C74.0651 76.8594 73.1862 77.237 72.3398 77.9922C71.4935 78.7344 70.849 79.8932 70.4062 81.4688C70.0677 82.6797 69.8984 85.1276 69.8984 88.8125V96H67.1055V74.75ZM97.5547 66.8594H100.309V74.75H104.645V77.0938H100.309V96H97.5547V77.0938H93.8242V74.75H97.5547V66.8594ZM123.375 74.75H126.129V84.6719C126.129 87.0938 126.259 88.7604 126.52 89.6719C126.91 90.974 127.652 92.0026 128.746 92.7578C129.853 93.513 131.168 93.8906 132.691 93.8906C134.215 93.8906 135.504 93.526 136.559 92.7969C137.626 92.0547 138.362 91.0846 138.766 89.8867C139.039 89.0664 139.176 87.3281 139.176 84.6719V74.75H141.969V85.1797C141.969 88.1094 141.624 90.3164 140.934 91.8008C140.257 93.2852 139.228 94.4505 137.848 95.2969C136.48 96.1302 134.762 96.5469 132.691 96.5469C130.621 96.5469 128.889 96.1302 127.496 95.2969C126.116 94.4505 125.081 93.2786 124.391 91.7812C123.714 90.2708 123.375 88.0052 123.375 84.9844V74.75ZM184.234 74.75V96H181.539V92.3477C180.393 93.7409 179.104 94.7891 177.672 95.4922C176.253 96.1953 174.697 96.5469 173.004 96.5469C169.996 96.5469 167.424 95.4596 165.289 93.2852C163.167 91.0977 162.105 88.4414 162.105 85.3164C162.105 82.2565 163.18 79.6393 165.328 77.4648C167.477 75.2904 170.061 74.2031 173.082 74.2031C174.827 74.2031 176.402 74.5742 177.809 75.3164C179.228 76.0586 180.471 77.1719 181.539 78.6562V74.75H184.234ZM173.297 76.8398C171.773 76.8398 170.367 77.2174 169.078 77.9727C167.789 78.7148 166.76 79.763 165.992 81.1172C165.237 82.4714 164.859 83.9036 164.859 85.4141C164.859 86.9115 165.243 88.3438 166.012 89.7109C166.78 91.0781 167.809 92.1458 169.098 92.9141C170.4 93.6693 171.793 94.0469 173.277 94.0469C174.775 94.0469 176.194 93.6693 177.535 92.9141C178.876 92.1589 179.905 91.1367 180.621 89.8477C181.35 88.5586 181.715 87.1068 181.715 85.4922C181.715 83.0312 180.901 80.974 179.273 79.3203C177.659 77.6667 175.667 76.8398 173.297 76.8398ZM204.996 66.5469H207.73V96H204.996V66.5469ZM251.988 90.6484L254.43 89.1836C256.148 92.3477 258.134 93.9297 260.387 93.9297C261.35 93.9297 262.255 93.7083 263.102 93.2656C263.948 92.8099 264.592 92.2044 265.035 91.4492C265.478 90.694 265.699 89.8932 265.699 89.0469C265.699 88.0833 265.374 87.1393 264.723 86.2148C263.824 84.9388 262.184 83.4023 259.801 81.6055C257.405 79.7956 255.914 78.487 255.328 77.6797C254.312 76.3255 253.805 74.8607 253.805 73.2852C253.805 72.0352 254.104 70.8958 254.703 69.8672C255.302 68.8385 256.142 68.0312 257.223 67.4453C258.316 66.8464 259.501 66.5469 260.777 66.5469C262.132 66.5469 263.395 66.8854 264.566 67.5625C265.751 68.2266 267.001 69.457 268.316 71.2539L265.973 73.0312C264.892 71.599 263.967 70.6549 263.199 70.1992C262.444 69.7435 261.617 69.5156 260.719 69.5156C259.56 69.5156 258.609 69.8672 257.867 70.5703C257.138 71.2734 256.773 72.1393 256.773 73.168C256.773 73.793 256.904 74.3984 257.164 74.9844C257.424 75.5703 257.9 76.2083 258.59 76.8984C258.967 77.263 260.204 78.2201 262.301 79.7695C264.788 81.6055 266.493 83.2396 267.418 84.6719C268.342 86.1042 268.805 87.543 268.805 88.9883C268.805 91.0716 268.01 92.8815 266.422 94.418C264.846 95.9544 262.926 96.7227 260.66 96.7227C258.915 96.7227 257.333 96.2604 255.914 95.3359C254.495 94.3984 253.186 92.8359 251.988 90.6484ZM289.078 74.75H291.832V84.6719C291.832 87.0938 291.962 88.7604 292.223 89.6719C292.613 90.974 293.355 92.0026 294.449 92.7578C295.556 93.513 296.871 93.8906 298.395 93.8906C299.918 93.8906 301.207 93.526 302.262 92.7969C303.329 92.0547 304.065 91.0846 304.469 89.8867C304.742 89.0664 304.879 87.3281 304.879 84.6719V74.75H307.672V85.1797C307.672 88.1094 307.327 90.3164 306.637 91.8008C305.96 93.2852 304.931 94.4505 303.551 95.2969C302.184 96.1302 300.465 96.5469 298.395 96.5469C296.324 96.5469 294.592 96.1302 293.199 95.2969C291.819 94.4505 290.784 93.2786 290.094 91.7812C289.417 90.2708 289.078 88.0052 289.078 84.9844V74.75ZM328.746 74.75H331.461V78.4219C332.411 77.0677 333.388 76.0781 334.391 75.4531C335.771 74.6198 337.223 74.2031 338.746 74.2031C339.775 74.2031 340.751 74.4049 341.676 74.8086C342.6 75.2122 343.355 75.7526 343.941 76.4297C344.527 77.0938 345.035 78.0508 345.465 79.3008C346.376 77.6341 347.516 76.3711 348.883 75.5117C350.25 74.6393 351.721 74.2031 353.297 74.2031C354.768 74.2031 356.064 74.5742 357.184 75.3164C358.316 76.0586 359.156 77.0938 359.703 78.4219C360.25 79.75 360.523 81.7422 360.523 84.3984V96H357.73V84.3984C357.73 82.1198 357.568 80.5573 357.242 79.7109C356.917 78.8516 356.357 78.1615 355.562 77.6406C354.781 77.1198 353.844 76.8594 352.75 76.8594C351.422 76.8594 350.204 77.25 349.098 78.0312C348.004 78.8125 347.203 79.8542 346.695 81.1562C346.188 82.4583 345.934 84.6328 345.934 87.6797V96H343.219V85.1211C343.219 82.556 343.056 80.8177 342.73 79.9062C342.418 78.9818 341.865 78.2461 341.07 77.6992C340.276 77.1393 339.332 76.8594 338.238 76.8594C336.975 76.8594 335.79 77.2435 334.684 78.0117C333.59 78.7669 332.776 79.7891 332.242 81.0781C331.721 82.3672 331.461 84.3398 331.461 86.9961V96H328.746V74.75ZM381.285 74.75H384V78.4219C384.951 77.0677 385.927 76.0781 386.93 75.4531C388.31 74.6198 389.762 74.2031 391.285 74.2031C392.314 74.2031 393.29 74.4049 394.215 74.8086C395.139 75.2122 395.895 75.7526 396.48 76.4297C397.066 77.0938 397.574 78.0508 398.004 79.3008C398.915 77.6341 400.055 76.3711 401.422 75.5117C402.789 74.6393 404.26 74.2031 405.836 74.2031C407.307 74.2031 408.603 74.5742 409.723 75.3164C410.855 76.0586 411.695 77.0938 412.242 78.4219C412.789 79.75 413.062 81.7422 413.062 84.3984V96H410.27V84.3984C410.27 82.1198 410.107 80.5573 409.781 79.7109C409.456 78.8516 408.896 78.1615 408.102 77.6406C407.32 77.1198 406.383 76.8594 405.289 76.8594C403.961 76.8594 402.743 77.25 401.637 78.0312C400.543 78.8125 399.742 79.8542 399.234 81.1562C398.727 82.4583 398.473 84.6328 398.473 87.6797V96H395.758V85.1211C395.758 82.556 395.595 80.8177 395.27 79.9062C394.957 78.9818 394.404 78.2461 393.609 77.6992C392.815 77.1393 391.871 76.8594 390.777 76.8594C389.514 76.8594 388.329 77.2435 387.223 78.0117C386.129 78.7669 385.315 79.7891 384.781 81.0781C384.26 82.3672 384 84.3398 384 86.9961V96H381.285V74.75ZM434.801 66C435.426 66 435.96 66.2214 436.402 66.6641C436.845 67.1068 437.066 67.6406 437.066 68.2656C437.066 68.8776 436.845 69.4049 436.402 69.8477C435.96 70.2904 435.426 70.5117 434.801 70.5117C434.189 70.5117 433.661 70.2904 433.219 69.8477C432.776 69.4049 432.555 68.8776 432.555 68.2656C432.555 67.6406 432.776 67.1068 433.219 66.6641C433.661 66.2214 434.189 66 434.801 66ZM433.434 74.75H436.188V96H433.434V74.75ZM459.234 66.8594H461.988V74.75H466.324V77.0938H461.988V96H459.234V77.0938H455.504V74.75H459.234V66.8594Z" fill="#78E3AF"/>
</g>
<defs>
<linearGradient id="paint0_linear" x1="-15.7861" y1="-38.1375" x2="408.092" y2="194.612" gradientUnits="userSpaceOnUse">
<stop offset="0.0914352" stop-color="#73F2A4"/>
<stop offset="0.8882" stop-color="#3294F1"/>
</linearGradient>
<linearGradient id="paint1_linear" x1="-5.53563" y1="-56.8055" x2="418.343" y2="175.944" gradientUnits="userSpaceOnUse">
<stop offset="0.0914352" stop-color="#73F2A4"/>
<stop offset="0.8882" stop-color="#3294F1"/>
</linearGradient>
<linearGradient id="paint2_linear" x1="2.07789" y1="-70.6708" x2="425.956" y2="162.078" gradientUnits="userSpaceOnUse">
<stop offset="0.0914352" stop-color="#73F2A4"/>
<stop offset="0.8882" stop-color="#3294F1"/>
</linearGradient>
<linearGradient id="paint3_linear" x1="5.85913" y1="-77.5573" x2="429.737" y2="155.192" gradientUnits="userSpaceOnUse">
<stop offset="0.0914352" stop-color="#73F2A4"/>
<stop offset="0.8882" stop-color="#3294F1"/>
</linearGradient>
<linearGradient id="paint4_linear" x1="15.7188" y1="-95.5135" x2="439.597" y2="137.236" gradientUnits="userSpaceOnUse">
<stop offset="0.0914352" stop-color="#73F2A4"/>
<stop offset="0.8882" stop-color="#3294F1"/>
</linearGradient>
<linearGradient id="paint5_linear" x1="25.0173" y1="-112.448" x2="448.896" y2="120.301" gradientUnits="userSpaceOnUse">
<stop offset="0.0914352" stop-color="#73F2A4"/>
<stop offset="0.8882" stop-color="#3294F1"/>
</linearGradient>
<linearGradient id="paint6_linear" x1="33.9467" y1="-128.709" x2="457.825" y2="104.04" gradientUnits="userSpaceOnUse">
<stop offset="0.0914352" stop-color="#73F2A4"/>
<stop offset="0.8882" stop-color="#3294F1"/>
</linearGradient>
<linearGradient id="paint7_linear" x1="43.2297" y1="-145.618" x2="467.109" y2="87.1327" gradientUnits="userSpaceOnUse">
<stop offset="0.0914352" stop-color="#73F2A4"/>
<stop offset="0.8882" stop-color="#3294F1"/>
</linearGradient>
<linearGradient id="paint8_linear" x1="53.4248" y1="-164.183" x2="477.303" y2="68.5662" gradientUnits="userSpaceOnUse">
<stop offset="0.0914352" stop-color="#73F2A4"/>
<stop offset="0.8882" stop-color="#3294F1"/>
</linearGradient>
<linearGradient id="paint9_linear" x1="69.8024" y1="-194.008" x2="493.68" y2="38.7406" gradientUnits="userSpaceOnUse">
<stop offset="0.0914352" stop-color="#73F2A4"/>
<stop offset="0.8882" stop-color="#3294F1"/>
</linearGradient>
<linearGradient id="paint10_linear" x1="59.0761" y1="-174.474" x2="482.954" y2="58.2747" gradientUnits="userSpaceOnUse">
<stop offset="0.0914352" stop-color="#73F2A4"/>
<stop offset="0.8882" stop-color="#3294F1"/>
</linearGradient>
<linearGradient id="paint11_linear" x1="64.6134" y1="-184.56" x2="488.492" y2="48.1894" gradientUnits="userSpaceOnUse">
<stop offset="0.0914352" stop-color="#73F2A4"/>
<stop offset="0.8882" stop-color="#3294F1"/>
</linearGradient>
<linearGradient id="paint12_linear" x1="-35.5154" y1="-2.20684" x2="388.363" y2="230.543" gradientUnits="userSpaceOnUse">
<stop offset="0.0914352" stop-color="#73F2A4"/>
<stop offset="0.8882" stop-color="#3294F1"/>
</linearGradient>
<linearGradient id="paint13_linear" x1="-25.837" y1="-19.8329" x2="398.042" y2="212.916" gradientUnits="userSpaceOnUse">
<stop offset="0.0914352" stop-color="#73F2A4"/>
<stop offset="0.8882" stop-color="#3294F1"/>
</linearGradient>
<clipPath id="clip0">
<rect width="468" height="108" fill="white"/>
</clipPath>
<clipPath id="clip1">
<rect width="468" height="49" fill="white"/>
</clipPath>
</defs>
</svg>
