<svg width="40" height="40" viewBox="0 0 40 40" fill="none" xmlns="http://www.w3.org/2000/svg">
<path d="M40 20C40 8.9415 31.0585 0 20 0C8.9415 0 0 8.9415 0 20C0 31.0585 8.9415 40 20 40C31.0585 40 40 31.0585 40 20Z" fill="#395196"/>
<path d="M21.7548 15.2647V13.3706C21.7548 12.4513 22.3676 12.2285 22.8132 12.2285C23.2589 12.2285 25.4595 12.2285 25.4595 12.2285V8.16164L21.8105 8.13379C17.7436 8.13379 16.8244 11.17 16.8244 13.092V15.2369H14.4846V19.9722H16.8522C16.8522 25.3483 16.8522 31.8107 16.8522 31.8107H21.5876C21.5876 31.8107 21.5876 25.2647 21.5876 19.9722H25.0974L25.5431 15.2369H21.7548V15.2647Z" fill="white"/>
</svg>
