<svg width="40" height="40" viewBox="0 0 40 40" fill="none" xmlns="http://www.w3.org/2000/svg">
<path d="M20 0C8.95688 0 0 8.95688 0 20C0 31.0431 8.95688 40 20 40C31.0431 40 40 31.0431 40 20C40 8.95688 31.0431 0 20 0Z" fill="url(#paint0_linear)"/>
<path d="M20 27.1487C23.9499 27.1487 27.1488 23.9498 27.1488 19.9999C27.1488 16.05 23.9499 12.8511 20 12.8511C16.0501 12.8511 12.8512 16.05 12.8512 19.9999C12.8512 23.9498 16.0501 27.1487 20 27.1487ZM14.5758 19.9999C14.5758 17.0235 16.9958 14.5757 19.9722 14.5757C22.9485 14.5757 25.3686 16.9957 25.3686 19.9999C25.3686 22.9762 22.9485 25.3963 19.9722 25.3963C16.9958 25.3963 14.5758 22.9762 14.5758 19.9999Z" fill="white"/>
<path d="M27.121 31.8773H12.879C10.2086 31.8773 8.03894 29.7076 8.03894 27.0372V12.99C8.03894 10.3196 10.2086 8.1499 12.879 8.1499H27.121C29.7914 8.1499 31.9611 10.3196 31.9611 12.99V27.0094C31.9611 29.6798 29.7914 31.8773 27.121 31.8773ZM12.879 9.90234C11.1822 9.90234 9.79137 11.2932 9.79137 12.99V27.0094C9.79137 28.7062 11.1822 30.097 12.879 30.097H27.121C28.8178 30.097 30.2086 28.7062 30.2086 27.0094V12.99C30.2086 11.2932 28.8178 9.90234 27.121 9.90234H12.879Z" fill="white"/>
<path d="M27.2323 12.0444C26.6203 12.0444 26.0918 12.5451 26.0918 13.1849C26.0918 13.7969 26.5925 14.2976 27.2323 14.2976C27.8442 14.2976 28.3727 13.7969 28.3727 13.1849C28.3727 12.5451 27.872 12.0444 27.2323 12.0444Z" fill="white"/>
<defs>
<linearGradient id="paint0_linear" x1="33.121" y1="35.0964" x2="6.8778" y2="4.90709" gradientUnits="userSpaceOnUse">
<stop stop-color="#5D3FD2"/>
<stop offset="0.4244" stop-color="#B829A9"/>
<stop offset="0.5009" stop-color="#BE289D"/>
<stop offset="0.6383" stop-color="#D0257E"/>
<stop offset="0.7849" stop-color="#E62256"/>
<stop offset="0.8147" stop-color="#E83156"/>
<stop offset="0.8718" stop-color="#EE5755"/>
<stop offset="0.9495" stop-color="#F89554"/>
<stop offset="1" stop-color="#FFC153"/>
</linearGradient>
</defs>
</svg>
