<svg width="99" height="82" viewBox="0 0 99 82" fill="none" xmlns="http://www.w3.org/2000/svg">
<path d="M41.281 79.4563C62.3377 79.4563 79.4074 62.4417 79.4074 41.4531C79.4074 20.4646 62.3377 3.45001 41.281 3.45001C20.2244 3.45001 3.15464 20.4646 3.15464 41.4531C3.15464 62.4417 20.2244 79.4563 41.281 79.4563Z" stroke="black" stroke-width="5" stroke-linecap="round" stroke-linejoin="round"/>
<path d="M41.281 64.2549C53.915 64.2549 64.1568 54.0461 64.1568 41.453C64.1568 28.8599 53.915 18.6511 41.281 18.6511C28.647 18.6511 18.4052 28.8599 18.4052 41.453C18.4052 54.0461 28.647 64.2549 41.281 64.2549Z" stroke="black" stroke-width="4" stroke-linecap="round" stroke-linejoin="round"/>
<path d="M41.281 49.0535C45.4923 49.0535 48.9063 45.6506 48.9063 41.4529C48.9063 37.2552 45.4923 33.8523 41.281 33.8523C37.0697 33.8523 33.6557 37.2552 33.6557 41.4529C33.6557 45.6506 37.0697 49.0535 41.281 49.0535Z" stroke="black" stroke-width="4" stroke-linecap="round" stroke-linejoin="round"/>
<g clip-path="url(#clip0)">
<path d="M48.1703 30.9295C48.088 30.7714 47.9277 30.6692 47.7497 30.6611C47.5716 30.653 47.4027 30.7403 47.3063 30.8902L40.6272 41.2808C40.5305 41.4312 40.5216 41.6219 40.6037 41.7808C40.6858 41.9397 40.8466 42.0426 41.0253 42.0506L53.4111 42.6105C53.5876 42.6184 53.7553 42.5326 53.8521 42.3847C53.9488 42.2367 53.9603 42.0487 53.8822 41.8901L52.1291 38.3293L80.6912 23.4444L87.8538 28.214C88.0056 28.3151 88.2003 28.3255 88.362 28.2413L90.2642 27.25C90.421 27.1683 90.523 27.0098 90.5324 26.8333C90.5419 26.6568 90.4574 26.4884 90.3103 26.3904L83.0764 21.5733L83.9664 21.1094L91.6582 26.2314C91.81 26.3325 92.0047 26.3429 92.1664 26.2586L94.0686 25.2673C94.2254 25.1856 94.3274 25.0272 94.3368 24.8507C94.3463 24.6741 94.2618 24.5057 94.1147 24.4078L86.8808 19.5907L87.7708 19.1268L95.4626 24.2488C95.6144 24.3499 95.8091 24.3603 95.9708 24.276L97.873 23.2847C98.0298 23.203 98.1318 23.0446 98.1412 22.8681C98.1507 22.6915 98.0662 22.5231 97.9191 22.4251L90.6852 17.6081L91.928 16.9604C92.1729 16.8328 92.2679 16.5308 92.1403 16.2859L91.2392 14.5569C91.1116 14.312 90.8097 14.2169 90.5648 14.3446L89.322 14.9922L89.5174 6.30342C89.5214 6.12668 89.4317 5.96098 89.2816 5.8676C89.1315 5.77423 88.9432 5.76707 88.7865 5.84877L86.8843 6.84008C86.7226 6.92435 86.6196 7.08995 86.6155 7.27224L86.4076 16.511L85.5176 16.9749L85.713 8.28604C85.717 8.1093 85.6273 7.9436 85.4772 7.85022C85.3271 7.75685 85.1388 7.74969 84.9821 7.83139L83.0799 8.82271C82.9182 8.90697 82.8152 9.07257 82.8111 9.25486L82.6032 18.4936L81.7132 18.9575L81.9086 10.2687C81.9126 10.0919 81.8229 9.92622 81.6728 9.83285C81.5227 9.73947 81.3344 9.73232 81.1777 9.81402L79.2755 10.8053C79.1138 10.8896 79.0108 11.0552 79.0067 11.2375L78.8179 19.6288L50.0846 34.6028L48.1703 30.9295Z" fill="#9FFFC8" stroke="black" stroke-linecap="round" stroke-linejoin="round"/>
</g>
<defs>
<clipPath id="clip0">
<rect x="98.8679" y="23.3428" width="62.3686" height="20.6842" transform="rotate(152.474 98.8679 23.3428)" fill="white"/>
</clipPath>
</defs>
</svg>
