<svg width="106" height="87" viewBox="0 0 106 87" fill="none" xmlns="http://www.w3.org/2000/svg">
<path d="M39.1429 2.76526C18.6304 2.76526 2 19.3419 2 39.788C2 60.2342 18.6304 76.8108 39.1429 76.8108C59.6553 76.8108 76.2857 60.2342 76.2857 39.788C76.2857 19.3419 59.6553 2.76526 39.1429 2.76526Z" stroke="black" stroke-width="4" stroke-miterlimit="10"/>
<path d="M39.1428 2.76526C28.3529 2.76526 18.2078 19.3419 18.2078 39.788C18.2078 60.2342 28.3529 76.8108 39.1428 76.8108C49.9327 76.8108 60.0779 60.2342 60.0779 39.788C60.0779 19.3419 49.9327 2.76526 39.1428 2.76526Z" stroke="black" stroke-width="4" stroke-miterlimit="10"/>
<path d="M14.1558 13.5355C21.0463 19.4391 29.7207 22.9595 39.1428 22.9595C48.565 22.9595 57.2394 19.4391 64.1299 13.5355" stroke="black" stroke-width="4" stroke-linecap="round" stroke-linejoin="round"/>
<path d="M64.1299 64.6943C57.2394 59.6341 48.565 56.6166 39.1428 56.6166C29.7207 56.6166 21.0463 59.6341 14.1558 64.6943" stroke="black" stroke-width="4" stroke-linecap="round" stroke-linejoin="round"/>
<path d="M38.4675 2.76526V76.8108" stroke="black" stroke-width="4" stroke-miterlimit="10"/>
<path d="M76.2857 40.4612H2" stroke="black" stroke-width="4" stroke-miterlimit="10"/>
<path d="M91.6376 65.539L91.224 66.2029L91.7688 66.7642L104.604 79.9893L99.8956 84.8096L86.9219 71.7412L86.354 71.1691L85.6744 71.6027C82.8014 73.4355 79.3892 74.5 75.7699 74.5C65.3753 74.5 57.026 65.9868 57.026 55.288C57.026 44.5892 65.3753 36.076 75.7699 36.076C86.1645 36.076 94.5138 44.5892 94.5138 55.288C94.5138 59.0559 93.4681 62.6003 91.6376 65.539ZM75.7699 43.0592C72.5879 43.0592 69.5411 44.3534 67.2984 46.6492C65.0565 48.9443 63.801 52.0522 63.801 55.288C63.801 58.5239 65.0565 61.6317 67.2984 63.9268C69.5411 66.2227 72.5879 67.5169 75.7699 67.5169C78.9519 67.5169 81.9987 66.2227 84.2414 63.9268C86.4833 61.6317 87.7387 58.5239 87.7387 55.288C87.7387 52.0522 86.4833 48.9443 84.2414 46.6492C81.9987 44.3534 78.9519 43.0592 75.7699 43.0592Z" fill="#9FFFC8" stroke="black" stroke-width="2"/>
</svg>
