<svg width="94" height="107" viewBox="0 0 94 107" fill="none" xmlns="http://www.w3.org/2000/svg">
<path d="M26.2393 72.0502C13.7931 60.2483 6.22437 46.0559 5.53401 34.794C5.55958 35.2111 -6.20274 61.8848 18.1447 83.4285C42.9349 105.364 67.9521 90.0243 67.9521 90.0243C56.3241 91.5699 40.0136 85.0273 26.2393 72.0502Z" stroke="black" stroke-width="4" stroke-miterlimit="10" stroke-linecap="round" stroke-linejoin="round"/>
<path d="M48.6851 48.9125C31.4205 33.636 5.53397 34.7939 5.53397 34.7939C6.22433 46.0559 13.7931 60.2482 26.2393 72.0502C40.0135 85.0272 56.3241 91.5698 67.9521 90.0243C67.8498 88.3559 65.507 63.7973 48.6851 48.9125Z" stroke="black" stroke-width="4" stroke-miterlimit="10" stroke-linecap="round" stroke-linejoin="round"/>
<path d="M24.0515 49.9893L56.8756 39.2022L50.6123 73.5007" stroke="black" stroke-width="4" stroke-miterlimit="10" stroke-linecap="round"/>
<path d="M58.4785 42.6736C61.2424 42.5058 63.3451 40.1283 63.1752 37.3635C63.0052 34.5986 60.6269 32.4933 57.863 32.6612C55.0991 32.829 52.9964 35.2065 53.1663 37.9713C53.3363 40.7362 55.7147 42.8415 58.4785 42.6736Z" fill="black"/>
<path d="M20.0976 89.3573L19.5542 90.8102L20.8262 91.698L39.0308 104.404H3.15311V103.948L13.5489 83.4171L13.5736 83.3682L13.5956 83.3181L14.6227 80.9804L20.8992 87.2139L20.0976 89.3573Z" stroke="black" stroke-width="4"/>
<path d="M57.5057 23.891L57.9248 28.0692C59.0212 27.9467 60.1312 28.0425 61.1901 28.3513C62.249 28.66 63.2358 29.1754 64.0932 29.8676C64.9505 30.5597 65.6613 31.4148 66.1843 32.3831C66.7072 33.3515 67.0319 34.4138 67.1394 35.5082L71.3251 35.0476C71.164 33.4061 70.6772 31.8129 69.8929 30.3606C69.1087 28.9083 68.0426 27.6259 66.7568 26.5878C65.471 25.5497 63.991 24.7767 62.4028 24.3138C60.8147 23.8508 59.1501 23.7071 57.5057 23.891ZM56.6701 15.5314L57.0893 19.7095C59.2815 19.4646 61.5007 19.6563 63.618 20.2736C65.7352 20.8909 67.7083 21.9215 69.4226 23.3054C71.1368 24.6894 72.558 26.3991 73.6037 28.3352C74.6493 30.2713 75.2985 32.3953 75.5135 34.5837L79.7025 34.1257C79.4337 31.39 78.6221 28.7348 77.3149 26.3144C76.0078 23.8941 74.2311 21.7568 72.0881 20.0267C69.9451 18.2966 67.4785 17.0083 64.8317 16.2366C62.1849 15.4649 59.4107 15.2252 56.6701 15.5314ZM55.8303 7.17367L56.2494 11.3519C59.5383 10.9841 62.8677 11.2716 66.0441 12.1977C69.2206 13.1237 72.1807 14.6697 74.7525 16.746C77.3243 18.8222 79.4565 21.3872 81.0251 24.292C82.5937 27.1967 83.5675 30.3832 83.8899 33.6664L88.0772 33.207C87.7011 29.3768 86.5651 25.6592 84.735 22.2703C82.905 18.8815 80.4175 15.889 77.4171 13.4667C74.4167 11.0444 70.9632 9.24073 67.2574 8.1604C63.5516 7.08007 59.6673 6.74466 55.8303 7.17367Z" fill="#9FFFC8" stroke="black"/>
</svg>
